<svg xmlns="http://www.w3.org/2000/svg" width="32" height="32" viewBox="0 0 24 24" fill="none" stroke="#2563eb" stroke-width="2" stroke-linecap="round" stroke-linejoin="round">
  <path d="m7 16.3c2.2 0 4-1.83 4-4.05 0-1.16-.57-2.26-1.71-3.19S7.29 6.75 7 5.3c-.29 1.45-1.14 2.84-2.29 3.76S3 11.19 3 12.25c0 2.22 1.8 4.05 4 4.05z"/>
  <path d="M12.56 6.6A10.97 10.97 0 0 0 14 3.02c.5 2.5 2.04 4.6 4.14 5.93a10.97 10.97 0 0 1 0 5.05 10.97 10.97 0 0 1-4.14 5.93c-2.46 1.56-5.67 1.56-8.13 0a10.97 10.97 0 0 1-4.14-5.93 10.97 10.97 0 0 1 0-5.05A10.97 10.97 0 0 1 5.87 3.02C7.96 1.46 10.05 1.46 12.56 6.6z"/>
</svg>